<svg width="37" height="36" viewBox="0 0 37 36" fill="none" xmlns="http://www.w3.org/2000/svg">
<rect x="1" y="0.5" width="35" height="35" rx="11.5" stroke="#E7E7E8"/>
<path d="M26.4999 14.18V9C26.4999 8.73478 26.3946 8.48043 26.207 8.29289C26.0195 8.10536 25.7651 8 25.4999 8C25.2347 8 24.9803 8.10536 24.7928 8.29289C24.6053 8.48043 24.4999 8.73478 24.4999 9V14.18C23.9208 14.3902 23.4204 14.7736 23.0668 15.2782C22.7131 15.7827 22.5234 16.3839 22.5234 17C22.5234 17.6161 22.7131 18.2173 23.0668 18.7218C23.4204 19.2264 23.9208 19.6098 24.4999 19.82V27C24.4999 27.2652 24.6053 27.5196 24.7928 27.7071C24.9803 27.8946 25.2347 28 25.4999 28C25.7651 28 26.0195 27.8946 26.207 27.7071C26.3946 27.5196 26.4999 27.2652 26.4999 27V19.82C27.0791 19.6098 27.5795 19.2264 27.9331 18.7218C28.2867 18.2173 28.4764 17.6161 28.4764 17C28.4764 16.3839 28.2867 15.7827 27.9331 15.2782C27.5795 14.7736 27.0791 14.3902 26.4999 14.18ZM25.4999 18C25.3021 18 25.1088 17.9414 24.9443 17.8315C24.7799 17.7216 24.6517 17.5654 24.576 17.3827C24.5003 17.2 24.4805 16.9989 24.5191 16.8049C24.5577 16.6109 24.653 16.4327 24.7928 16.2929C24.9327 16.153 25.1108 16.0578 25.3048 16.0192C25.4988 15.9806 25.6999 16.0004 25.8826 16.0761C26.0653 16.1518 26.2215 16.28 26.3314 16.4444C26.4413 16.6089 26.4999 16.8022 26.4999 17C26.4999 17.2652 26.3946 17.5196 26.207 17.7071C26.0195 17.8946 25.7651 18 25.4999 18ZM19.4999 20.18V9C19.4999 8.73478 19.3946 8.48043 19.207 8.29289C19.0195 8.10536 18.7651 8 18.4999 8C18.2347 8 17.9803 8.10536 17.7928 8.29289C17.6053 8.48043 17.4999 8.73478 17.4999 9V20.18C16.9208 20.3902 16.4204 20.7736 16.0668 21.2782C15.7131 21.7827 15.5234 22.3839 15.5234 23C15.5234 23.6161 15.7131 24.2173 16.0668 24.7218C16.4204 25.2264 16.9208 25.6098 17.4999 25.82V27C17.4999 27.2652 17.6053 27.5196 17.7928 27.7071C17.9803 27.8946 18.2347 28 18.4999 28C18.7651 28 19.0195 27.8946 19.207 27.7071C19.3946 27.5196 19.4999 27.2652 19.4999 27V25.82C20.0791 25.6098 20.5795 25.2264 20.9331 24.7218C21.2867 24.2173 21.4764 23.6161 21.4764 23C21.4764 22.3839 21.2867 21.7827 20.9331 21.2782C20.5795 20.7736 20.0791 20.3902 19.4999 20.18ZM18.4999 24C18.3021 24 18.1088 23.9414 17.9443 23.8315C17.7799 23.7216 17.6517 23.5654 17.576 23.3827C17.5003 23.2 17.4805 22.9989 17.5191 22.8049C17.5577 22.6109 17.653 22.4327 17.7928 22.2929C17.9327 22.153 18.1108 22.0578 18.3048 22.0192C18.4988 21.9806 18.6999 22.0004 18.8826 22.0761C19.0653 22.1518 19.2215 22.28 19.3314 22.4444C19.4413 22.6089 19.4999 22.8022 19.4999 23C19.4999 23.2652 19.3946 23.5196 19.207 23.7071C19.0195 23.8946 18.7651 24 18.4999 24ZM12.4999 12.18V9C12.4999 8.73478 12.3946 8.48043 12.207 8.29289C12.0195 8.10536 11.7651 8 11.4999 8C11.2347 8 10.9803 8.10536 10.7928 8.29289C10.6053 8.48043 10.4999 8.73478 10.4999 9V12.18C9.92076 12.3902 9.42037 12.7736 9.06676 13.2782C8.71314 13.7827 8.52344 14.3839 8.52344 15C8.52344 15.6161 8.71314 16.2173 9.06676 16.7218C9.42037 17.2264 9.92076 17.6098 10.4999 17.82V27C10.4999 27.2652 10.6053 27.5196 10.7928 27.7071C10.9803 27.8946 11.2347 28 11.4999 28C11.7651 28 12.0195 27.8946 12.207 27.7071C12.3946 27.5196 12.4999 27.2652 12.4999 27V17.82C13.0791 17.6098 13.5795 17.2264 13.9331 16.7218C14.2867 16.2173 14.4764 15.6161 14.4764 15C14.4764 14.3839 14.2867 13.7827 13.9331 13.2782C13.5795 12.7736 13.0791 12.3902 12.4999 12.18ZM11.4999 16C11.3021 16 11.1088 15.9414 10.9443 15.8315C10.7799 15.7216 10.6517 15.5654 10.576 15.3827C10.5003 15.2 10.4805 14.9989 10.5191 14.8049C10.5577 14.6109 10.653 14.4327 10.7928 14.2929C10.9327 14.153 11.1108 14.0578 11.3048 14.0192C11.4988 13.9806 11.6999 14.0004 11.8826 14.0761C12.0653 14.1518 12.2215 14.28 12.3314 14.4444C12.4413 14.6089 12.4999 14.8022 12.4999 15C12.4999 15.2652 12.3946 15.5196 12.207 15.7071C12.0195 15.8946 11.7651 16 11.4999 16Z" fill="#3E3E40"/>
</svg>
