<svg width="29" height="28" viewBox="0 0 29 28" fill="none" xmlns="http://www.w3.org/2000/svg">
<path d="M24.2094 22.29L20.4994 18.61C21.9395 16.8144 22.6369 14.5353 22.4482 12.2413C22.2595 9.94733 21.1991 7.81281 19.4849 6.27667C17.7708 4.74053 15.5332 3.91954 13.2323 3.9825C10.9315 4.04546 8.74214 4.98759 7.11456 6.61517C5.48698 8.24275 4.54485 10.4321 4.48189 12.7329C4.41893 15.0338 5.23992 17.2714 6.77606 18.9855C8.3122 20.6997 10.4467 21.7601 12.7407 21.9488C15.0347 22.1375 17.3138 21.4401 19.1094 20L22.7894 23.68C22.8824 23.7738 22.993 23.8482 23.1148 23.8989C23.2367 23.9497 23.3674 23.9758 23.4994 23.9758C23.6314 23.9758 23.7621 23.9497 23.884 23.8989C24.0059 23.8482 24.1165 23.7738 24.2094 23.68C24.3897 23.4936 24.4904 23.2444 24.4904 22.985C24.4904 22.7257 24.3897 22.4765 24.2094 22.29ZM13.4994 20C12.1149 20 10.7616 19.5895 9.61042 18.8203C8.45928 18.0511 7.56207 16.9579 7.03226 15.6788C6.50245 14.3997 6.36382 12.9923 6.63392 11.6344C6.90402 10.2765 7.5707 9.02925 8.54967 8.05028C9.52864 7.07131 10.7759 6.40463 12.1338 6.13453C13.4917 5.86443 14.8991 6.00306 16.1782 6.53287C17.4573 7.06268 18.5505 7.95989 19.3197 9.11103C20.0889 10.2622 20.4994 11.6156 20.4994 13C20.4994 14.8565 19.7619 16.637 18.4492 17.9498C17.1364 19.2625 15.3559 20 13.4994 20Z" fill="#868687"/>
</svg>
